<mxfile host="Electron" agent="Mozilla/5.0 (Macintosh; Intel Mac OS X 10_15_7) AppleWebKit/537.36 (KHTML, like Gecko) draw.io/24.7.17 Chrome/128.0.6613.36 Electron/32.0.1 Safari/537.36" version="24.7.17">
  <diagram name="Page-1" id="_gRGWOFDqU3hSQWJzQTY">
    <mxGraphModel dx="1012" dy="1805" grid="1" gridSize="10" guides="1" tooltips="1" connect="1" arrows="1" fold="1" page="1" pageScale="1" pageWidth="850" pageHeight="1100" background="none" math="1" shadow="0">
      <root>
        <mxCell id="0" />
        <mxCell id="1" parent="0" />
        <mxCell id="vsRgP92jTyw3C7przkWq-26" value="" style="endArrow=classic;html=1;rounded=0;" parent="1" edge="1">
          <mxGeometry width="50" height="50" relative="1" as="geometry">
            <mxPoint x="40" y="-620" as="sourcePoint" />
            <mxPoint x="200" y="-620" as="targetPoint" />
          </mxGeometry>
        </mxCell>
        <mxCell id="vsRgP92jTyw3C7przkWq-27" value="" style="ellipse;whiteSpace=wrap;html=1;fillColor=#000000;" parent="1" vertex="1">
          <mxGeometry x="57" y="-623" width="5" height="5" as="geometry" />
        </mxCell>
        <mxCell id="vsRgP92jTyw3C7przkWq-28" value="$$0$$" style="text;html=1;align=center;verticalAlign=middle;whiteSpace=wrap;rounded=0;" parent="1" vertex="1">
          <mxGeometry x="39" y="-617" width="40" height="18" as="geometry" />
        </mxCell>
        <mxCell id="vsRgP92jTyw3C7przkWq-30" value="$$\mathbf{x}_0 = q(\mathbf{x})$$" style="text;html=1;align=center;verticalAlign=middle;whiteSpace=wrap;rounded=0;fontSize=16;fillColor=none;fontColor=#0000FF;" parent="1" vertex="1">
          <mxGeometry x="62" y="-660" width="101" height="20" as="geometry" />
        </mxCell>
        <mxCell id="vsRgP92jTyw3C7przkWq-50" value="Grouth Truth Distribution" style="text;html=1;align=center;verticalAlign=middle;whiteSpace=wrap;rounded=0;fontFamily=Segoe UI;" parent="1" vertex="1">
          <mxGeometry x="43" y="-700" width="153" height="30" as="geometry" />
        </mxCell>
        <mxCell id="vsRgP92jTyw3C7przkWq-67" value="$$1$$" style="ellipse;whiteSpace=wrap;html=1;fillColor=#0000FF;strokeColor=#0000FF;fontColor=#FFFFFF;fontSize=10;" parent="1" vertex="1">
          <mxGeometry x="95" y="-625" width="10" height="10" as="geometry" />
        </mxCell>
      </root>
    </mxGraphModel>
  </diagram>
</mxfile>
